<svg width="273" height="191" xmlns="http://www.w3.org/2000/svg" xmlns:xlink="http://www.w3.org/1999/xlink" overflow="hidden"><g transform="translate(-510 -208)"><path d="M700 302.538C699.979 354.729 657.653 397.021 605.462 397 553.272 396.979 510.979 354.653 511 302.463 511.016 262.369 536.33 226.65 574.154 213.35L584.042 241.474C550.338 253.324 532.623 290.254 544.473 323.958 556.324 357.662 593.254 375.377 626.958 363.527 652.849 354.423 670.178 329.971 670.189 302.526Z" fill="#E53652" fill-rule="evenodd"/><path d="M0 190 65.7281 0 99 0 33.2719 190Z" fill="#0C4A96" fill-rule="evenodd" transform="matrix(-1 0 0 1 685 208)"/><path d="M0 190 65.0641 0 98 0 32.9359 190Z" fill="#0C4A96" fill-rule="evenodd" transform="matrix(-1 0 0 1 733 208)"/><path d="M0 125 42.8991 0 76 0.000209846 33.1008 125 0 125Z" fill="#0C4A96" fill-rule="evenodd" transform="matrix(-1 0 0 1 782 273)"/></g></svg>