<svg width="275" height="193" xmlns="http://www.w3.org/2000/svg" xmlns:xlink="http://www.w3.org/1999/xlink" overflow="hidden"><g transform="translate(-202 -93)"><path d="M393 189.038C392.979 240.952 350.653 283.021 298.462 283 246.271 282.979 203.979 240.877 204 188.963 204.016 149.024 229.402 113.456 267.301 100.27L277.138 128.245C243.323 139.952 225.475 176.643 237.273 210.197 249.071 243.751 286.047 261.462 319.862 249.755 345.893 240.743 363.336 216.383 363.347 189.026Z" stroke="#FFFFFF" stroke-width="2" stroke-miterlimit="8" fill="#E53652" fill-rule="evenodd"/><path d="M0 189 65.0641 0 98 0 32.9359 189Z" stroke="#FFFFFF" stroke-width="2" stroke-miterlimit="8" fill="#0C4A96" fill-rule="evenodd" transform="matrix(-1 0 0 1 377 95)"/><path d="M0 189 65.0641 0 98 0 32.9359 189Z" stroke="#FFFFFF" stroke-width="2" stroke-miterlimit="8" fill="#0C4A96" fill-rule="evenodd" transform="matrix(-1 0 0 1 426 95)"/><path d="M0 125 42.8991 0 76 0.000209846 33.1008 125 0 125Z" stroke="#FFFFFF" stroke-width="2" stroke-miterlimit="8" fill="#0C4A96" fill-rule="evenodd" transform="matrix(-1 0 0 1 475 159)"/></g></svg>