<svg width="274" height="192" xmlns="http://www.w3.org/2000/svg" xmlns:xlink="http://www.w3.org/1999/xlink" overflow="hidden"><g transform="translate(-183 -251)"><path d="M374 346.538C373.979 398.729 331.653 441.021 279.462 441 227.272 440.979 184.979 398.653 185 346.463 185.016 306.369 210.33 270.65 248.154 257.35L258.042 285.474C224.338 297.324 206.623 334.254 218.473 367.958 230.324 401.662 267.254 419.377 300.958 407.527 326.849 398.423 344.178 373.971 344.189 346.526Z" stroke="#FFFFFF" stroke-width="2" stroke-miterlimit="8" fill="#333F50" fill-rule="evenodd"/><path d="M0 190 65.0641 0 98 0 32.9359 190Z" fill="#FFFFFF" fill-rule="evenodd" transform="matrix(-1 0 0 1 358 252)"/><path d="M0 190 65.0641 0 98 0 32.9359 190Z" fill="#FFFFFF" fill-rule="evenodd" transform="matrix(-1 0 0 1 407 252)"/><path d="M0 125 42.8991 0 76 0.000209846 33.1008 125 0 125Z" fill="#FFFFFF" fill-rule="evenodd" transform="matrix(-1 0 0 1 456 317)"/></g></svg>