<svg width="276" height="193" xmlns="http://www.w3.org/2000/svg" xmlns:xlink="http://www.w3.org/1999/xlink" overflow="hidden"><g transform="translate(-689 -85)"><path d="M880 181.538C879.979 233.729 837.653 276.021 785.462 276 733.272 275.979 690.979 233.653 691 181.463 691.016 141.369 716.33 105.65 754.154 92.3504L764.042 120.474C730.338 132.324 712.623 169.254 724.473 202.958 736.324 236.662 773.254 254.377 806.958 242.527 832.849 233.423 850.178 208.971 850.189 181.526Z" stroke="#FFFFFF" stroke-width="2" stroke-miterlimit="8" fill="#333F50" fill-rule="evenodd"/><path d="M0 190 65.7281 0 99 0 33.2719 190Z" stroke="#FFFFFF" stroke-width="2" stroke-miterlimit="8" fill="#333F50" fill-rule="evenodd" transform="matrix(-1 0 0 1 865 87)"/><path d="M0 190 65.0641 0 98 0 32.9359 190Z" stroke="#FFFFFF" stroke-width="2" stroke-miterlimit="8" fill="#333F50" fill-rule="evenodd" transform="matrix(-1 0 0 1 913 87)"/><path d="M0 126 42.8991 0 76 0.000211525 33.1008 126 0 126Z" stroke="#FFFFFF" stroke-width="2" stroke-miterlimit="8" fill="#333F50" fill-rule="evenodd" transform="matrix(-1 0 0 1 962 151)"/></g></svg>