<svg width="274" height="191" xmlns="http://www.w3.org/2000/svg" xmlns:xlink="http://www.w3.org/1999/xlink" overflow="hidden"><g transform="translate(-822 -251)"><path d="M1013 345.538C1012.98 397.729 970.653 440.021 918.462 440 866.272 439.979 823.979 397.653 824 345.463 824.016 305.369 849.33 269.65 887.154 256.35L897.042 284.474C863.338 296.324 845.623 333.254 857.473 366.958 869.324 400.662 906.254 418.377 939.958 406.527 965.849 397.423 983.178 372.971 983.189 345.526Z" stroke="#333F50" stroke-width="2" stroke-miterlimit="8" fill="#FFFFFF" fill-rule="evenodd"/><path d="M0 190 65.7281 0 99 0 33.2719 190Z" fill="#333F50" fill-rule="evenodd" transform="matrix(-1 0 0 1 998 251)"/><path d="M0 190 65.0641 0 98 0 32.9359 190Z" fill="#333F50" fill-rule="evenodd" transform="matrix(-1 0 0 1 1046 251)"/><path d="M0 125 42.8991 0 76 0.000209846 33.1008 125 0 125Z" fill="#333F50" fill-rule="evenodd" transform="matrix(-1 0 0 1 1095 316)"/></g></svg>