<svg width="275" height="193" xmlns="http://www.w3.org/2000/svg" xmlns:xlink="http://www.w3.org/1999/xlink" overflow="hidden"><g transform="translate(-32 -87)"><path d="M223 182.538C222.979 234.729 180.653 277.021 128.462 277 76.2716 276.979 33.9793 234.653 34 182.463 34.0159 142.369 59.3302 106.65 97.1538 93.3504L107.042 121.474C73.3381 133.324 55.6226 170.254 67.4733 203.958 79.3241 237.662 116.254 255.377 149.958 243.527 175.849 234.423 193.178 209.971 193.189 182.526Z" stroke="#333F50" stroke-width="2" stroke-miterlimit="8" fill="#FFFFFF" fill-rule="evenodd"/><path d="M0 190 65.0641 0 98 0 32.9359 190Z" stroke="#333F50" stroke-width="2" stroke-miterlimit="8" fill="#FFFFFF" fill-rule="evenodd" transform="matrix(-1 0 0 1 207 88)"/><path d="M0 190 65.0641 0 98 0 32.9359 190Z" stroke="#333F50" stroke-width="2" stroke-miterlimit="8" fill="#FFFFFF" fill-rule="evenodd" transform="matrix(-1 0 0 1 256 88)"/><path d="M0 125 42.8991 0 76 0.000209846 33.1008 125 0 125Z" stroke="#333F50" stroke-width="2" stroke-miterlimit="8" fill="#FFFFFF" fill-rule="evenodd" transform="matrix(-1 0 0 1 305 153)"/></g></svg>