<svg width="275" height="193" xmlns="http://www.w3.org/2000/svg" xmlns:xlink="http://www.w3.org/1999/xlink" overflow="hidden"><g transform="translate(-215 -368)"><path d="M406 463.538C405.979 515.729 363.653 558.021 311.462 558 259.272 557.979 216.979 515.654 217 463.463 217.016 423.369 242.33 387.65 280.154 374.35L290.042 402.474C256.338 414.324 238.623 451.254 250.473 484.958 262.324 518.662 299.254 536.377 332.958 524.527 358.849 515.423 376.178 490.971 376.189 463.526Z" stroke="#FFFFFF" stroke-width="2" stroke-miterlimit="8" fill="#03D2D8" fill-rule="evenodd"/><path d="M0 190 65.0641 0 98 0 32.9359 190Z" stroke="#FFFFFF" stroke-width="2" stroke-miterlimit="8" fill="#0C4A96" fill-rule="evenodd" transform="matrix(-1 0 0 1 390 369)"/><path d="M0 190 65.0641 0 98 0 32.9359 190Z" stroke="#FFFFFF" stroke-width="2" stroke-miterlimit="8" fill="#0C4A96" fill-rule="evenodd" transform="matrix(-1 0 0 1 439 369)"/><path d="M0 125 42.8991 0 76 0.000209846 33.1008 125 0 125Z" stroke="#FFFFFF" stroke-width="2" stroke-miterlimit="8" fill="#0C4A96" fill-rule="evenodd" transform="matrix(-1 0 0 1 488 434)"/></g></svg>