<svg width="275" height="194" xmlns="http://www.w3.org/2000/svg" xmlns:xlink="http://www.w3.org/1999/xlink" overflow="hidden"><g transform="translate(-522 -368)"><path d="M713 464.538C712.979 516.729 670.653 559.021 618.462 559 566.272 558.979 523.979 516.654 524 464.463 524.016 424.369 549.33 388.65 587.154 375.35L597.042 403.474C563.338 415.324 545.623 452.254 557.473 485.958 569.324 519.662 606.254 537.377 639.958 525.527 665.849 516.423 683.178 491.971 683.189 464.526Z" stroke="#FFFFFF" stroke-width="2" stroke-miterlimit="8" fill="#E8704F" fill-rule="evenodd"/><path d="M0 190 65.7281 0 99 0 33.2719 190Z" stroke="#FFFFFF" stroke-width="2" stroke-miterlimit="8" fill="#0C4A96" fill-rule="evenodd" transform="matrix(-1 0 0 1 698 370)"/><path d="M0 190 65.0641 0 98 0 32.9359 190Z" stroke="#FFFFFF" stroke-width="2" stroke-miterlimit="8" fill="#0C4A96" fill-rule="evenodd" transform="matrix(-1 0 0 1 746 370)"/><path d="M0 125 42.8991 0 76 0.000209846 33.1008 125 0 125Z" stroke="#FFFFFF" stroke-width="2" stroke-miterlimit="8" fill="#0C4A96" fill-rule="evenodd" transform="matrix(-1 0 0 1 795 435)"/></g></svg>