<svg width="275" height="193" xmlns="http://www.w3.org/2000/svg" xmlns:xlink="http://www.w3.org/1999/xlink" overflow="hidden"><g transform="translate(-509 -94)"><path d="M700 189.538C699.979 241.729 657.653 284.021 605.462 284 553.272 283.979 510.979 241.653 511 189.463 511.016 149.369 536.33 113.65 574.154 100.35L584.042 128.474C550.338 140.324 532.623 177.254 544.473 210.958 556.324 244.662 593.254 262.377 626.958 250.527 652.849 241.423 670.178 216.971 670.189 189.526Z" stroke="#FFFFFF" stroke-width="2" stroke-miterlimit="8" fill="#03B1F7" fill-rule="evenodd"/><path d="M0 190 65.7281 0 99 0 33.2719 190Z" stroke="#FFFFFF" stroke-width="2" stroke-miterlimit="8" fill="#0C4A96" fill-rule="evenodd" transform="matrix(-1 0 0 1 685 95)"/><path d="M0 190 65.0641 0 98 0 32.9359 190Z" stroke="#FFFFFF" stroke-width="2" stroke-miterlimit="8" fill="#0C4A96" fill-rule="evenodd" transform="matrix(-1 0 0 1 733 95)"/><path d="M0 125 42.8991 0 76 0.000209846 33.1008 125 0 125Z" stroke="#FFFFFF" stroke-width="2" stroke-miterlimit="8" fill="#0C4A96" fill-rule="evenodd" transform="matrix(-1 0 0 1 782 160)"/></g></svg>